<svg xmlns="http://www.w3.org/2000/svg" width="256" height="256" viewBox="0 0 100 100"><rect width="100" height="100" rx="20" fill="#bb50ed"></rect><path fill="#fff" d="M39.25 56.03L39.25 56.03Q39.25 59.45 38.21 62.19Q37.17 64.94 35.13 66.88Q33.08 68.83 30.13 69.90Q27.19 70.97 23.37 70.97L23.37 70.97Q19.55 70.97 16.60 69.90Q13.65 68.83 11.64 66.88Q9.63 64.94 8.59 62.19Q7.56 59.45 7.56 56.03L7.56 56.03L7.56 29.50Q7.89 29.36 8.59 29.20Q9.30 29.03 10.10 29.03L10.10 29.03Q12.98 29.03 12.98 31.51L12.98 31.51L12.98 55.56Q12.98 58.24 13.79 60.25Q14.59 62.26 15.96 63.63Q17.34 65.01 19.25 65.68Q21.16 66.35 23.37 66.35L23.37 66.35Q25.58 66.35 27.49 65.68Q29.40 65.01 30.77 63.63Q32.14 62.26 32.95 60.25Q33.75 58.24 33.75 55.56L33.75 55.56L33.75 29.50Q34.09 29.36 34.79 29.20Q35.49 29.03 36.30 29.03L36.30 29.03Q39.25 29.03 39.25 31.51L39.25 31.51L39.25 56.03ZM74.29 59.51L74.29 59.51Q73.82 59.85 73.05 60.12Q72.28 60.39 71.34 60.39L71.34 60.39Q70.27 60.39 69.43 60.05Q68.59 59.72 68.26 58.98L68.26 58.98Q64.64 51.47 62.03 45.24Q59.41 39.01 57.81 34.93L57.81 34.93L57.54 34.93Q57.34 39.95 57.10 44.27Q56.87 48.59 56.60 52.71Q56.33 56.83 56.06 61.06Q55.80 65.28 55.53 70.10L55.53 70.10Q55.13 70.23 54.49 70.37Q53.85 70.50 53.12 70.50L53.12 70.50Q51.64 70.50 51.04 69.90Q50.44 69.30 50.44 68.16L50.44 68.16Q50.44 67.49 50.54 65.28Q50.64 63.07 50.84 59.92Q51.04 56.77 51.27 52.95Q51.51 49.13 51.81 45.18Q52.11 41.22 52.41 37.40Q52.71 33.59 52.98 30.44L52.98 30.44Q53.52 29.97 54.52 29.57Q55.53 29.16 56.80 29.16L56.80 29.16Q59.88 29.16 61.09 31.64L61.09 31.64Q62.36 34.26 63.67 37.17Q64.97 40.08 66.28 43.10Q67.59 46.11 68.83 49.06Q70.07 52.01 71.21 54.69L71.21 54.69L71.47 54.69Q72.95 51.14 74.42 47.69Q75.90 44.24 77.30 41.02Q78.71 37.81 79.98 34.99Q81.26 32.18 82.26 29.83L82.26 29.83Q82.86 29.50 83.80 29.33Q84.74 29.16 85.54 29.16L85.54 29.16Q88.69 29.16 89.16 31.31L89.16 31.31Q89.43 32.51 89.76 35.29Q90.10 38.07 90.43 41.69Q90.77 45.31 91.07 49.46Q91.37 53.62 91.64 57.47Q91.91 61.32 92.11 64.57Q92.31 67.82 92.44 69.70L92.44 69.70Q91.24 70.50 89.63 70.50L89.63 70.50Q88.63 70.50 87.86 70.00Q87.08 69.50 86.95 68.16L86.95 68.16Q86.62 63.27 86.35 58.44Q86.08 53.62 85.84 49.26Q85.61 44.91 85.41 41.26Q85.21 37.61 85.07 35.06L85.07 35.06L84.81 35.06Q84.07 36.94 83.10 39.28Q82.13 41.63 80.82 44.57Q79.51 47.52 77.91 51.24Q76.30 54.96 74.29 59.51Z"></path></svg>